<?xml version="1.0" standalone="no"?>
<!DOCTYPE svg PUBLIC "-//W3C//DTD SVG 20010904//EN"
 "http://www.w3.org/TR/2001/REC-SVG-20010904/DTD/svg10.dtd">
<svg version="1.0" xmlns="http://www.w3.org/2000/svg"
 width="50.000000pt" height="42.000000pt" viewBox="0 0 50.000000 42.000000"
 preserveAspectRatio="xMidYMid meet">
<metadata>
Created by potrace 1.10, written by Peter Selinger 2001-2011
</metadata>
<g transform="translate(0.000000,42.000000) scale(0.100000,-0.100000)"
fill="#000000" stroke="none">
    <defs>
        <linearGradient id="grad1">
            <stop offset="0%" stop-color="#0de8d3"/>
            <stop offset="100%" stop-color="#0daed0"/>
        </linearGradient>
    </defs>
<path d="M291 285 c-94 -88 -152 -135 -166 -135 -23 0 -65 -38 -65 -58 0 -7
-14 -21 -30 -31 l-31 -18 27 -18 c34 -22 123 -24 160 -5 14 8 28 26 31 42 4
19 49 70 144 161 137 131 155 157 127 185 -27 27 -56 10 -197 -123z m173 96
c9 -13 -196 -203 -207 -192 -8 8 178 200 195 201 4 0 9 -4 12 -9z m-236 -237
c-24 -24 -44 -7 -22 17 12 13 21 16 28 9 7 -7 5 -15 -6 -26z m-44 -35 c18 -27
11 -46 -25 -64 -25 -14 -99 -21 -99 -11 0 19 46 77 68 85 38 14 39 13 56 -10z" 
      fill="url(#grad1)"/>
</g>
</svg>
