<?xml version="1.0" standalone="no"?>
<!DOCTYPE svg PUBLIC "-//W3C//DTD SVG 20010904//EN"
 "http://www.w3.org/TR/2001/REC-SVG-20010904/DTD/svg10.dtd">
<svg version="1.0" xmlns="http://www.w3.org/2000/svg"
 width="28.000000pt" height="50.000000pt" viewBox="0 0 28.000000 50.000000"
 preserveAspectRatio="xMidYMid meet">
<metadata>
Created by potrace 1.10, written by Peter Selinger 2001-2011
</metadata>
<g transform="translate(0.000000,50.000000) scale(0.100000,-0.100000)"
fill="#000000" stroke="none"><defs>
        <linearGradient id="grad1">
            <stop offset="0%" stop-color="#0de8d3"/>
            <stop offset="100%" stop-color="#0daed0"/>
        </linearGradient>
    </defs>
<path d="M20 480 c-21 -21 -27 -60 -10 -60 6 0 10 -7 10 -15 0 -8 -4 -15 -10
-15 -16 0 -13 -197 3 -203 10 -3 10 -9 0 -26 -21 -34 -16 -118 7 -141 17 -17
33 -20 120 -20 124 0 140 11 140 93 0 29 -5 58 -12 65 -9 9 -9 15 0 24 15 15
16 200 1 215 -8 8 -8 13 0 17 17 11 13 44 -9 66 -17 17 -33 20 -120 20 -87 0
-103 -3 -120 -20z m218 -22 c31 -31 14 -38 -98 -38 -84 0 -110 3 -110 13 0 29
25 37 110 37 54 0 91 -5 98 -12z m12 -168 l0 -100 -110 0 -110 0 0 100 0 100
110 0 110 0 0 -100z m0 -186 c0 -27 -5 -55 -12 -62 -16 -16 -180 -16 -196 0
-7 7 -12 35 -12 62 l0 51 110 0 110 0 0 -51z" fill="url(#grad1)"/>
<path d="M120 115 c-6 -8 -10 -22 -8 -32 5 -25 51 -25 56 0 4 18 -14 47 -28
47 -4 0 -13 -7 -20 -15z" fill="url(#grad1)"/>
</g>
</svg>
