<?xml version="1.0" standalone="no"?>
<!DOCTYPE svg PUBLIC "-//W3C//DTD SVG 20010904//EN"
 "http://www.w3.org/TR/2001/REC-SVG-20010904/DTD/svg10.dtd">
<svg version="1.0" xmlns="http://www.w3.org/2000/svg"
 width="41.000000pt" height="50.000000pt" viewBox="0 0 41.000000 50.000000"
 preserveAspectRatio="xMidYMid meet">
<metadata>
Created by potrace 1.10, written by Peter Selinger 2001-2011
</metadata>
<g transform="translate(0.000000,50.000000) scale(0.100000,-0.100000)"
fill="#000000" stroke="none"><defs>
        <linearGradient id="grad1">
            <stop offset="0%" stop-color="#0de8d3"/>
            <stop offset="100%" stop-color="#0daed0"/>
        </linearGradient>
    </defs>
<path d="M17 477 c-11 -11 -16 -25 -12 -35 9 -24 12 -391 3 -385 -12 7 -9 -12
5 -31 11 -16 32 -18 192 -18 143 1 181 3 190 15 15 21 12 444 -4 460 -8 8 -63
12 -184 12 -153 0 -174 -2 -190 -18z m351 -19 c17 -17 17 -399 0 -416 -17 -17
-309 -17 -326 0 -17 17 -17 399 0 416 17 17 309 17 326 0z" fill="url(#grad1)"/>
<path d="M72 428 c-16 -16 -17 -224 0 -234 15 -9 252 -9 267 0 16 10 15 218
-1 234 -17 17 -249 17 -266 0z m240 -118 l0 -85 -106 -3 -106 -3 0 91 0 91
106 -3 106 -3 0 -85z" fill="url(#grad1)"/>
<path d="M81 135 l-23 -25 26 -27 26 -26 26 26 26 27 -23 25 c-13 13 -26 25
-29 25 -3 0 -16 -12 -29 -25z m39 -25 c0 -5 -4 -10 -10 -10 -5 0 -10 5 -10 10
0 6 5 10 10 10 6 0 10 -4 10 -10z" fill="url(#grad1)"/>
<path d="M234 149 c-10 -17 13 -36 27 -22 12 12 4 33 -11 33 -5 0 -12 -5 -16
-11z" fill="url(#grad1)"/>
<path d="M314 149 c-10 -17 13 -36 27 -22 12 12 4 33 -11 33 -5 0 -12 -5 -16
-11z" fill="url(#grad1)"/>
<path d="M227 93 c-4 -3 -7 -12 -7 -20 0 -15 26 -18 34 -4 7 11 -18 33 -27 24z" fill="url(#grad1)"/>
<path d="M306 93 c-12 -12 -6 -33 9 -33 8 0 15 6 15 14 0 17 -14 28 -24 19z" fill="url(#grad1)"/>
</g>
</svg>
