<?xml version="1.0" standalone="no"?>
<!DOCTYPE svg PUBLIC "-//W3C//DTD SVG 20010904//EN"
 "http://www.w3.org/TR/2001/REC-SVG-20010904/DTD/svg10.dtd">
<svg version="1.0" xmlns="http://www.w3.org/2000/svg"
 width="50.000000pt" height="46.000000pt" viewBox="0 0 50.000000 46.000000"
 preserveAspectRatio="xMidYMid meet">
<metadata>
Created by potrace 1.10, written by Peter Selinger 2001-2011
</metadata>
<g transform="translate(0.000000,46.000000) scale(0.100000,-0.100000)"
fill="#000000" stroke="none"><defs>
        <linearGradient id="grad1">
            <stop offset="0%" stop-color="#0de8d3"/>
            <stop offset="100%" stop-color="#0daed0"/>
        </linearGradient>
    </defs>
<path d="M85 453 c-54 -14 -86 -75 -76 -145 7 -40 22 -63 103 -160 110 -130
133 -152 147 -144 16 10 186 208 216 251 48 71 21 167 -55 197 -37 14 -106 0
-140 -28 -27 -23 -31 -24 -46 -10 -8 9 -23 20 -33 25 -22 12 -90 20 -116 14z
m101 -48 c24 -14 47 -32 52 -41 8 -14 14 -11 42 15 18 16 46 35 61 42 70 29
144 -40 125 -116 -5 -21 -72 -106 -188 -239 l-27 -31 -43 49 c-177 203 -192
229 -163 289 28 60 75 71 141 32z" fill="url(#grad1)"/>
</g>
</svg>
